# xmcd
#
# Track frame offsets:
#	150
#	22329
#	37961
#	52268
#	73612
#	95100
#	107326
#	125701
#	151502
#	168904
#	179569
#	203007
#	225732
#	247032
#	261282
#	279172
#
# Disc length: 4022 seconds
#
# Revision: 0
# Processed by: cddbd v1.5.1PL2 Copyright (c) Steve Scherf et al.
# Submitted via: SynApp - FreeCDDB Version: 2.0
#
DISCID=e10fb410
DTITLE=Handstreych - Neben meinem Baume
DYEAR=2001
DGENRE=A capella
TTITLE0=Der alte Leon
TTITLE1=Die Kneipe
TTITLE2=Das allererste Mädchen
TTITLE3=Hochzeitsmarsch
TTITLE4=Der versohlte Hintern
TTITLE5=Der Totengräber
TTITLE6=Gesang für den Elsässer
TTITLE7=Der Ahne
TTITLE8=Das Gespenst
TTITLE9=Onkel Nestor
TTITLE10=Die Mehrzahl
TTITLE11=Der kleine Flötenspieler
TTITLE12=Begräbnisse von einst
TTITLE13=Der Nabel einer Polizistenfrau
TTITLE14=Vater sein reicht nicht
TTITLE15=Neben meinem Baume
EXTD=
EXTT0=
EXTT1=
EXTT2=
EXTT3=
EXTT4=
EXTT5=
EXTT6=
EXTT7=
EXTT8=
EXTT9=
EXTT10=
EXTT11=
EXTT12=
EXTT13=
EXTT14=
EXTT15=
PLAYORDER=
